{
  "asset": {
    "generator": "Khronos glTF Blender I/O v1.7.33",
    "version": "2.0"
  },
  "scene": 0,
  "scenes": [
    {
      "name": "Scene",
      "nodes": [0]
    }
  ],
  "nodes": [
    {
      "mesh": 0,
      "name": "Coffee Cup"
    }
  ],
  "meshes": [
    {
      "name": "Cylinder",
      "primitives": [
        {
          "attributes": {
            "POSITION": 0,
            "NORMAL": 1,
            "TEXCOORD_0": 2
          },
          "indices": 3
        }
      ]
    }
  ],
  "accessors": [
    {
      "bufferView": 0,
      "componentType": 5126,
      "count": 10818,
      "max": [0.057922057807445526, 0.11299590766429901, 0.09883327782154083],
      "min": [
        -0.057922057807445526, 0.0005344434757716954, -0.057922057807445526
      ],
      "type": "VEC3"
    },
    {
      "bufferView": 1,
      "componentType": 5126,
      "count": 10818,
      "type": "VEC3"
    },
    {
      "bufferView": 2,
      "componentType": 5126,
      "count": 10818,
      "type": "VEC2"
    },
    {
      "bufferView": 3,
      "componentType": 5123,
      "count": 56832,
      "type": "SCALAR"
    }
  ],
  "bufferViews": [
    {
      "buffer": 0,
      "byteLength": 129816,
      "byteOffset": 0
    },
    {
      "buffer": 0,
      "byteLength": 129816,
      "byteOffset": 129816
    },
    {
      "buffer": 0,
      "byteLength": 86544,
      "byteOffset": 259632
    },
    {
      "buffer": 0,
      "byteLength": 113664,
      "byteOffset": 346176
    }
  ],
  "buffers": [
    {
      "byteLength": 459840,
      "uri": "data:application/octet-stream;base64,"
    }
  ]
}
